<?xml version="1.0" encoding="utf-8"?>
<!-- Generator: Adobe Illustrator 21.1.0, SVG Export Plug-In . SVG Version: 6.00 Build 0)  -->
<svg version="1.1" id="Capa_1" xmlns="http://www.w3.org/2000/svg" xmlns:xlink="http://www.w3.org/1999/xlink" x="0px" y="0px"
	 viewBox="0 0 102 100.1" style="enable-background:new 0 0 102 100.1;" xml:space="preserve">
<style type="text/css">
	.st0{fill:#FFFFFF;}
</style>
<path class="st0" d="M87.5,44c0-19.8-16.1-35.9-35.9-35.9C31.7,8.1,15.6,24.2,15.6,44c0,17.6,12.7,32.2,29.4,35.3v2.8v2.3v0V91h14
	v-6.6v0v-2.2v-3C75.3,75.8,87.5,61.3,87.5,44z M59,62.8v-0.1V49H45v13.7v0.4C37.1,60.4,31.4,52.9,31.4,44c0-11.1,9.1-20.2,20.2-20.2
	c11.1,0,20.2,9.1,20.2,20.2C71.8,52.6,66.5,59.8,59,62.8z"/>
</svg>
